<?xml version="1.0" encoding="UTF-8" standalone="no"?>
<!DOCTYPE svg PUBLIC "-//W3C//DTD SVG 1.1//EN"
 "http://www.w3.org/Graphics/SVG/1.1/DTD/svg11.dtd">
<!-- Generated by graphviz version 2.40.1 (20161225.0304)
 -->
<!-- Title: state transitions Pages: 1 -->
<svg width="249pt" height="598pt"
 viewBox="0.00 0.00 249.00 598.00" xmlns="http://www.w3.org/2000/svg" xmlns:xlink="http://www.w3.org/1999/xlink">
<g id="graph0" class="graph" transform="scale(1 1) rotate(0) translate(4 594)">
<title>state transitions</title>
<polygon fill="#ffffff" stroke="transparent" points="-4,4 -4,-594 245,-594 245,4 -4,4"/>
<g id="clust1" class="cluster state regular">
<title>cluster_state</title>
<path fill="none" stroke="#000000" stroke-width="2" d="M20,-8C20,-8 221,-8 221,-8 227,-8 233,-14 233,-20 233,-20 233,-570 233,-570 233,-576 227,-582 221,-582 221,-582 20,-582 20,-582 14,-582 8,-576 8,-570 8,-570 8,-20 8,-20 8,-14 14,-8 20,-8"/>
<text text-anchor="start" x="107.4944" y="-563.2" font-family="Helvetica,sans-Serif" font-size="12.00" fill="#000000">state</text>
</g>
<!-- state -->
<!-- state_muxInit -->
<g id="node2" class="node state regular">
<title>state_muxInit</title>
<polygon fill="#ffffff" fill-opacity="0.003922" stroke="transparent" stroke-width="2" points="108.5,-544 15.5,-544 15.5,-508 108.5,-508 108.5,-544"/>
<text text-anchor="start" x="26.8246" y="-522.2" font-family="Helvetica,sans-Serif" font-size="12.00" fill="#000000">state_muxInit</text>
<path fill="none" stroke="#000000" stroke-width="2" d="M27.8333,-509C27.8333,-509 96.1667,-509 96.1667,-509 101.8333,-509 107.5,-514.6667 107.5,-520.3333 107.5,-520.3333 107.5,-531.6667 107.5,-531.6667 107.5,-537.3333 101.8333,-543 96.1667,-543 96.1667,-543 27.8333,-543 27.8333,-543 22.1667,-543 16.5,-537.3333 16.5,-531.6667 16.5,-531.6667 16.5,-520.3333 16.5,-520.3333 16.5,-514.6667 22.1667,-509 27.8333,-509"/>
</g>
<!-- state_muxInit&#45;&gt;state_muxInit -->
<g id="edge1" class="edge transition">
<title>state_muxInit&#45;&gt;state_muxInit</title>
<path fill="none" stroke="#000000" d="M108.7439,-530.8322C121.1236,-530.556 130.5,-528.9453 130.5,-526 130.5,-523.9291 125.8645,-522.518 118.8087,-521.7666"/>
<polygon fill="#000000" stroke="#000000" points="118.9341,-518.268 108.7439,-521.1678 118.5183,-525.2556 118.9341,-518.268"/>
<text text-anchor="start" x="130.5" y="-523" font-family="Helvetica,sans-Serif" font-size="10.00" fill="#000000">start_fsm2 = &#39;0&#39; &#160;&#160;</text>
</g>
<!-- state_0 -->
<g id="node3" class="node state regular">
<title>state_0</title>
<polygon fill="#ffffff" fill-opacity="0.003922" stroke="transparent" stroke-width="2" points="92.5,-462 31.5,-462 31.5,-426 92.5,-426 92.5,-462"/>
<text text-anchor="start" x="42.8236" y="-440.2" font-family="Helvetica,sans-Serif" font-size="12.00" fill="#000000">state_0</text>
<path fill="none" stroke="#000000" stroke-width="2" d="M43.8333,-427C43.8333,-427 80.1667,-427 80.1667,-427 85.8333,-427 91.5,-432.6667 91.5,-438.3333 91.5,-438.3333 91.5,-449.6667 91.5,-449.6667 91.5,-455.3333 85.8333,-461 80.1667,-461 80.1667,-461 43.8333,-461 43.8333,-461 38.1667,-461 32.5,-455.3333 32.5,-449.6667 32.5,-449.6667 32.5,-438.3333 32.5,-438.3333 32.5,-432.6667 38.1667,-427 43.8333,-427"/>
</g>
<!-- state_muxInit&#45;&gt;state_0 -->
<g id="edge2" class="edge transition">
<title>state_muxInit&#45;&gt;state_0</title>
<path fill="none" stroke="#000000" d="M62,-507.8015C62,-497.3976 62,-484.1215 62,-472.3768"/>
<polygon fill="#000000" stroke="#000000" points="65.5001,-472.1476 62,-462.1476 58.5001,-472.1476 65.5001,-472.1476"/>
<text text-anchor="start" x="62" y="-482" font-family="Helvetica,sans-Serif" font-size="10.00" fill="#000000">not (start_fsm2 = &#39;0&#39;) &#160;&#160;</text>
</g>
<!-- state_1 -->
<g id="node4" class="node state regular">
<title>state_1</title>
<polygon fill="#ffffff" fill-opacity="0.003922" stroke="transparent" stroke-width="2" points="92.5,-380 31.5,-380 31.5,-344 92.5,-344 92.5,-380"/>
<text text-anchor="start" x="42.8236" y="-358.2" font-family="Helvetica,sans-Serif" font-size="12.00" fill="#000000">state_1</text>
<path fill="none" stroke="#000000" stroke-width="2" d="M43.8333,-345C43.8333,-345 80.1667,-345 80.1667,-345 85.8333,-345 91.5,-350.6667 91.5,-356.3333 91.5,-356.3333 91.5,-367.6667 91.5,-367.6667 91.5,-373.3333 85.8333,-379 80.1667,-379 80.1667,-379 43.8333,-379 43.8333,-379 38.1667,-379 32.5,-373.3333 32.5,-367.6667 32.5,-367.6667 32.5,-356.3333 32.5,-356.3333 32.5,-350.6667 38.1667,-345 43.8333,-345"/>
</g>
<!-- state_0&#45;&gt;state_1 -->
<g id="edge3" class="edge transition">
<title>state_0&#45;&gt;state_1</title>
<path fill="none" stroke="#000000" d="M62,-425.8015C62,-415.3976 62,-402.1215 62,-390.3768"/>
<polygon fill="#000000" stroke="#000000" points="65.5001,-390.1476 62,-380.1476 58.5001,-390.1476 65.5001,-390.1476"/>
<text text-anchor="middle" x="63.3895" y="-400" font-family="Helvetica,sans-Serif" font-size="10.00" fill="#000000"> </text>
</g>
<!-- state_2 -->
<g id="node5" class="node state regular">
<title>state_2</title>
<polygon fill="#ffffff" fill-opacity="0.003922" stroke="transparent" stroke-width="2" points="81.5,-298 20.5,-298 20.5,-262 81.5,-262 81.5,-298"/>
<text text-anchor="start" x="31.8236" y="-276.2" font-family="Helvetica,sans-Serif" font-size="12.00" fill="#000000">state_2</text>
<path fill="none" stroke="#000000" stroke-width="2" d="M32.8333,-263C32.8333,-263 69.1667,-263 69.1667,-263 74.8333,-263 80.5,-268.6667 80.5,-274.3333 80.5,-274.3333 80.5,-285.6667 80.5,-285.6667 80.5,-291.3333 74.8333,-297 69.1667,-297 69.1667,-297 32.8333,-297 32.8333,-297 27.1667,-297 21.5,-291.3333 21.5,-285.6667 21.5,-285.6667 21.5,-274.3333 21.5,-274.3333 21.5,-268.6667 27.1667,-263 32.8333,-263"/>
</g>
<!-- state_1&#45;&gt;state_2 -->
<g id="edge4" class="edge transition">
<title>state_1&#45;&gt;state_2</title>
<path fill="none" stroke="#000000" d="M59.5587,-343.8015C58.1631,-333.3976 56.3822,-320.1215 54.8066,-308.3768"/>
<polygon fill="#000000" stroke="#000000" points="58.233,-307.5934 53.4344,-298.1476 51.2951,-308.5242 58.233,-307.5934"/>
<text text-anchor="middle" x="58.3895" y="-318" font-family="Helvetica,sans-Serif" font-size="10.00" fill="#000000"> </text>
</g>
<!-- state_3 -->
<g id="node6" class="node state regular">
<title>state_3</title>
<polygon fill="#ffffff" fill-opacity="0.003922" stroke="transparent" stroke-width="2" points="137.5,-216 76.5,-216 76.5,-180 137.5,-180 137.5,-216"/>
<text text-anchor="start" x="87.8236" y="-194.2" font-family="Helvetica,sans-Serif" font-size="12.00" fill="#000000">state_3</text>
<path fill="none" stroke="#000000" stroke-width="2" d="M88.8333,-181C88.8333,-181 125.1667,-181 125.1667,-181 130.8333,-181 136.5,-186.6667 136.5,-192.3333 136.5,-192.3333 136.5,-203.6667 136.5,-203.6667 136.5,-209.3333 130.8333,-215 125.1667,-215 125.1667,-215 88.8333,-215 88.8333,-215 83.1667,-215 77.5,-209.3333 77.5,-203.6667 77.5,-203.6667 77.5,-192.3333 77.5,-192.3333 77.5,-186.6667 83.1667,-181 88.8333,-181"/>
</g>
<!-- state_2&#45;&gt;state_3 -->
<g id="edge5" class="edge transition">
<title>state_2&#45;&gt;state_3</title>
<path fill="none" stroke="#000000" d="M63.4282,-261.8015C70.8958,-250.8668 80.5302,-236.7593 88.8399,-224.5916"/>
<polygon fill="#000000" stroke="#000000" points="91.8572,-226.3795 94.6065,-216.1476 86.0766,-222.4317 91.8572,-226.3795"/>
<text text-anchor="middle" x="83.3895" y="-236" font-family="Helvetica,sans-Serif" font-size="10.00" fill="#000000"> </text>
</g>
<!-- state_3&#45;&gt;state_1 -->
<g id="edge7" class="edge transition">
<title>state_3&#45;&gt;state_1</title>
<path fill="none" stroke="#000000" d="M119.5675,-216.3796C123.1008,-223.1825 126,-231.1548 126,-239 126,-321 126,-321 126,-321 126,-335.0162 114.982,-344.4597 102.0891,-350.7121"/>
<polygon fill="#000000" stroke="#000000" points="100.3768,-347.6343 92.5005,-354.7205 103.0767,-354.0927 100.3768,-347.6343"/>
<text text-anchor="start" x="126" y="-277" font-family="Helvetica,sans-Serif" font-size="10.00" fill="#000000">not (count=6) &#160;&#160;</text>
</g>
<!-- state_4 -->
<g id="node7" class="node state regular">
<title>state_4</title>
<polygon fill="#ffffff" fill-opacity="0.003922" stroke="transparent" stroke-width="2" points="137.5,-134 76.5,-134 76.5,-98 137.5,-98 137.5,-134"/>
<text text-anchor="start" x="87.8236" y="-112.2" font-family="Helvetica,sans-Serif" font-size="12.00" fill="#000000">state_4</text>
<path fill="none" stroke="#000000" stroke-width="2" d="M88.8333,-99C88.8333,-99 125.1667,-99 125.1667,-99 130.8333,-99 136.5,-104.6667 136.5,-110.3333 136.5,-110.3333 136.5,-121.6667 136.5,-121.6667 136.5,-127.3333 130.8333,-133 125.1667,-133 125.1667,-133 88.8333,-133 88.8333,-133 83.1667,-133 77.5,-127.3333 77.5,-121.6667 77.5,-121.6667 77.5,-110.3333 77.5,-110.3333 77.5,-104.6667 83.1667,-99 88.8333,-99"/>
</g>
<!-- state_3&#45;&gt;state_4 -->
<g id="edge6" class="edge transition">
<title>state_3&#45;&gt;state_4</title>
<path fill="none" stroke="#000000" d="M107,-179.8015C107,-169.3976 107,-156.1215 107,-144.3768"/>
<polygon fill="#000000" stroke="#000000" points="110.5001,-144.1476 107,-134.1476 103.5001,-144.1476 110.5001,-144.1476"/>
<text text-anchor="start" x="107" y="-154" font-family="Helvetica,sans-Serif" font-size="10.00" fill="#000000">count=6 &#160;&#160;</text>
</g>
<!-- state_5 -->
<g id="node8" class="node state regular">
<title>state_5</title>
<polygon fill="#ffffff" fill-opacity="0.003922" stroke="transparent" stroke-width="2" points="137.5,-52 76.5,-52 76.5,-16 137.5,-16 137.5,-52"/>
<text text-anchor="start" x="87.8236" y="-30.2" font-family="Helvetica,sans-Serif" font-size="12.00" fill="#000000">state_5</text>
<path fill="none" stroke="#000000" stroke-width="2" d="M88.8333,-17C88.8333,-17 125.1667,-17 125.1667,-17 130.8333,-17 136.5,-22.6667 136.5,-28.3333 136.5,-28.3333 136.5,-39.6667 136.5,-39.6667 136.5,-45.3333 130.8333,-51 125.1667,-51 125.1667,-51 88.8333,-51 88.8333,-51 83.1667,-51 77.5,-45.3333 77.5,-39.6667 77.5,-39.6667 77.5,-28.3333 77.5,-28.3333 77.5,-22.6667 83.1667,-17 88.8333,-17"/>
</g>
<!-- state_4&#45;&gt;state_5 -->
<g id="edge8" class="edge transition">
<title>state_4&#45;&gt;state_5</title>
<path fill="none" stroke="#000000" d="M107,-97.8015C107,-87.3976 107,-74.1215 107,-62.3768"/>
<polygon fill="#000000" stroke="#000000" points="110.5001,-62.1476 107,-52.1476 103.5001,-62.1476 110.5001,-62.1476"/>
<text text-anchor="middle" x="108.3895" y="-72" font-family="Helvetica,sans-Serif" font-size="10.00" fill="#000000"> </text>
</g>
<!-- state_5&#45;&gt;state_5 -->
<g id="edge9" class="edge transition">
<title>state_5&#45;&gt;state_5</title>
<path fill="none" stroke="#000000" d="M137.7377,-38.856C149.6221,-39.0718 159.5,-37.4531 159.5,-34 159.5,-31.626 154.8311,-30.119 148.0512,-29.4792"/>
<polygon fill="#000000" stroke="#000000" points="147.8461,-25.9707 137.7377,-29.144 147.6187,-32.967 147.8461,-25.9707"/>
<text text-anchor="middle" x="160.8895" y="-31" font-family="Helvetica,sans-Serif" font-size="10.00" fill="#000000"> </text>
</g>
</g>
</svg>
