<?xml version="1.0" encoding="UTF-8" standalone="no"?>
<!DOCTYPE svg PUBLIC "-//W3C//DTD SVG 1.1//EN"
 "http://www.w3.org/Graphics/SVG/1.1/DTD/svg11.dtd">
<!-- Generated by graphviz version 2.40.1 (20161225.0304)
 -->
<!-- Title: state transitions Pages: 1 -->
<svg width="285pt" height="270pt"
 viewBox="0.00 0.00 285.00 270.00" xmlns="http://www.w3.org/2000/svg" xmlns:xlink="http://www.w3.org/1999/xlink">
<g id="graph0" class="graph" transform="scale(1 1) rotate(0) translate(4 266)">
<title>state transitions</title>
<polygon fill="#ffffff" stroke="transparent" points="-4,4 -4,-266 281,-266 281,4 -4,4"/>
<g id="clust1" class="cluster state regular">
<title>cluster_state</title>
<path fill="none" stroke="#000000" stroke-width="2" d="M20,-8C20,-8 257,-8 257,-8 263,-8 269,-14 269,-20 269,-20 269,-242 269,-242 269,-248 263,-254 257,-254 257,-254 20,-254 20,-254 14,-254 8,-248 8,-242 8,-242 8,-20 8,-20 8,-14 14,-8 20,-8"/>
<text text-anchor="start" x="125.4944" y="-235.2" font-family="Helvetica,sans-Serif" font-size="12.00" fill="#000000">state</text>
</g>
<!-- state -->
<!-- state_init -->
<g id="node2" class="node state regular">
<title>state_init</title>
<polygon fill="#ffffff" fill-opacity="0.003922" stroke="transparent" stroke-width="2" points="86,-216 16,-216 16,-180 86,-180 86,-216"/>
<text text-anchor="start" x="26.9934" y="-194.2" font-family="Helvetica,sans-Serif" font-size="12.00" fill="#000000">state_init</text>
<path fill="none" stroke="#000000" stroke-width="2" d="M28.3333,-181C28.3333,-181 73.6667,-181 73.6667,-181 79.3333,-181 85,-186.6667 85,-192.3333 85,-192.3333 85,-203.6667 85,-203.6667 85,-209.3333 79.3333,-215 73.6667,-215 73.6667,-215 28.3333,-215 28.3333,-215 22.6667,-215 17,-209.3333 17,-203.6667 17,-203.6667 17,-192.3333 17,-192.3333 17,-186.6667 22.6667,-181 28.3333,-181"/>
</g>
<!-- state_init&#45;&gt;state_init -->
<g id="edge2" class="edge transition">
<title>state_init&#45;&gt;state_init</title>
<path fill="none" stroke="#000000" d="M86.0666,-202.8738C98.2008,-202.9254 108,-201.3008 108,-198 108,-195.6791 103.1554,-194.187 96.061,-193.5234"/>
<polygon fill="#000000" stroke="#000000" points="96.1978,-190.0262 86.0666,-193.1262 95.9197,-197.0207 96.1978,-190.0262"/>
<text text-anchor="start" x="108" y="-195" font-family="Helvetica,sans-Serif" font-size="10.00" fill="#000000">not (rf_window_initFsm = &#39;1&#39;) &#160;&#160;</text>
</g>
<!-- state_1 -->
<g id="node3" class="node state regular">
<title>state_1</title>
<polygon fill="#ffffff" fill-opacity="0.003922" stroke="transparent" stroke-width="2" points="81.5,-134 20.5,-134 20.5,-98 81.5,-98 81.5,-134"/>
<text text-anchor="start" x="31.8236" y="-112.2" font-family="Helvetica,sans-Serif" font-size="12.00" fill="#000000">state_1</text>
<path fill="none" stroke="#000000" stroke-width="2" d="M32.8333,-99C32.8333,-99 69.1667,-99 69.1667,-99 74.8333,-99 80.5,-104.6667 80.5,-110.3333 80.5,-110.3333 80.5,-121.6667 80.5,-121.6667 80.5,-127.3333 74.8333,-133 69.1667,-133 69.1667,-133 32.8333,-133 32.8333,-133 27.1667,-133 21.5,-127.3333 21.5,-121.6667 21.5,-121.6667 21.5,-110.3333 21.5,-110.3333 21.5,-104.6667 27.1667,-99 32.8333,-99"/>
</g>
<!-- state_init&#45;&gt;state_1 -->
<g id="edge1" class="edge transition">
<title>state_init&#45;&gt;state_1</title>
<path fill="none" stroke="#000000" d="M51,-179.8015C51,-169.3976 51,-156.1215 51,-144.3768"/>
<polygon fill="#000000" stroke="#000000" points="54.5001,-144.1476 51,-134.1476 47.5001,-144.1476 54.5001,-144.1476"/>
<text text-anchor="start" x="51" y="-154" font-family="Helvetica,sans-Serif" font-size="10.00" fill="#000000">rf_window_initFsm = &#39;1&#39; &#160;&#160;</text>
</g>
<!-- state_2 -->
<g id="node4" class="node state regular">
<title>state_2</title>
<polygon fill="#ffffff" fill-opacity="0.003922" stroke="transparent" stroke-width="2" points="81.5,-52 20.5,-52 20.5,-16 81.5,-16 81.5,-52"/>
<text text-anchor="start" x="31.8236" y="-30.2" font-family="Helvetica,sans-Serif" font-size="12.00" fill="#000000">state_2</text>
<path fill="none" stroke="#000000" stroke-width="2" d="M32.8333,-17C32.8333,-17 69.1667,-17 69.1667,-17 74.8333,-17 80.5,-22.6667 80.5,-28.3333 80.5,-28.3333 80.5,-39.6667 80.5,-39.6667 80.5,-45.3333 74.8333,-51 69.1667,-51 69.1667,-51 32.8333,-51 32.8333,-51 27.1667,-51 21.5,-45.3333 21.5,-39.6667 21.5,-39.6667 21.5,-28.3333 21.5,-28.3333 21.5,-22.6667 27.1667,-17 32.8333,-17"/>
</g>
<!-- state_1&#45;&gt;state_2 -->
<g id="edge3" class="edge transition">
<title>state_1&#45;&gt;state_2</title>
<path fill="none" stroke="#000000" d="M51,-97.8015C51,-87.3976 51,-74.1215 51,-62.3768"/>
<polygon fill="#000000" stroke="#000000" points="54.5001,-62.1476 51,-52.1476 47.5001,-62.1476 54.5001,-62.1476"/>
<text text-anchor="middle" x="52.3895" y="-72" font-family="Helvetica,sans-Serif" font-size="10.00" fill="#000000"> </text>
</g>
<!-- state_2&#45;&gt;state_2 -->
<g id="edge4" class="edge transition">
<title>state_2&#45;&gt;state_2</title>
<path fill="none" stroke="#000000" d="M81.7377,-38.856C93.6221,-39.0718 103.5,-37.4531 103.5,-34 103.5,-31.626 98.8311,-30.119 92.0512,-29.4792"/>
<polygon fill="#000000" stroke="#000000" points="91.8461,-25.9707 81.7377,-29.144 91.6187,-32.967 91.8461,-25.9707"/>
<text text-anchor="middle" x="104.8895" y="-31" font-family="Helvetica,sans-Serif" font-size="10.00" fill="#000000"> </text>
</g>
</g>
</svg>
